<?xml version="1.0"?>
<svg xmlns="http://www.w3.org/2000/svg" id="outline" viewBox="0 0 512 512" width="512" height="512"><path d="M488,112H136a8.00008,8.00008,0,0,0-8,8v56H64a48.054,48.054,0,0,0-48,48V376a8.00008,8.00008,0,0,0,8,8H64v-.02783a39.95829,39.95829,0,0,0,65.90942-2.79248A7.97781,7.97781,0,0,0,136,384H248a7.97781,7.97781,0,0,0,6.09058-2.82031A39.95829,39.95829,0,0,0,320,383.97217V384h24v-.02783A39.98662,39.98662,0,0,0,415.19507,368H488a8.00008,8.00008,0,0,0,8-8V120A8.00008,8.00008,0,0,0,488,112ZM144,128H480V312H144Zm56,200v40H184V328ZM32,288H56a7.99983,7.99983,0,0,0,4.4375-1.34375l24-16A7.99943,7.99943,0,0,0,88,264V232h40v80H32Zm0-16V232H72v27.71875L53.57764,272Zm32-80h64v24H33.0127A32.0573,32.0573,0,0,1,64,192ZM56,360a40.02741,40.02741,0,0,0,.80493,8H32V328H72.028A39.96343,39.96343,0,0,0,56,360Zm40,24a24,24,0,1,1,24-24A24.0275,24.0275,0,0,1,96,384Zm23.972-56H128v8.02783A40.35528,40.35528,0,0,0,119.97205,328ZM144,328h24v40H144Zm96,40H216V328h24Zm16-31.97217V328h8.02795A40.35528,40.35528,0,0,0,256,336.02783ZM288,384a24,24,0,1,1,24-24A24.0275,24.0275,0,0,1,288,384Zm48-24a40.02741,40.02741,0,0,0,.80493,8h-9.60986a39.99151,39.99151,0,0,0-15.223-40h40.0559A39.96343,39.96343,0,0,0,336,360Zm40,24a24,24,0,1,1,24-24A24.0275,24.0275,0,0,1,376,384Zm39.19507-32a40.07027,40.07027,0,0,0-15.223-24H480v24Z"/><circle cx="96" cy="360" r="8"/><circle cx="288" cy="360" r="8"/><circle cx="376" cy="360" r="8"/></svg>
