<?xml version="1.0" encoding="UTF-8" standalone="no"?>
<svg
   xmlns:dc="http://purl.org/dc/elements/1.1/"
   xmlns:cc="http://creativecommons.org/ns#"
   xmlns:rdf="http://www.w3.org/1999/02/22-rdf-syntax-ns#"
   xmlns:svg="http://www.w3.org/2000/svg"
   xmlns="http://www.w3.org/2000/svg"
   xmlns:sodipodi="http://sodipodi.sourceforge.net/DTD/sodipodi-0.dtd"
   xmlns:inkscape="http://www.inkscape.org/namespaces/inkscape"
   inkscape:version="1.0 (4035a4f, 2020-05-01)"
   sodipodi:docname="tow-truck.svg"
   version="1.1"
   data-name="Layer 1"
   width="512"
   viewBox="0 0 512 512"
   height="512"
   id="Layer_1">
  <metadata
     id="metadata844">
    <rdf:RDF>
      <cc:Work
         rdf:about="">
        <dc:format>image/svg+xml</dc:format>
        <dc:type
           rdf:resource="http://purl.org/dc/dcmitype/StillImage" />
      </cc:Work>
    </rdf:RDF>
  </metadata>
  <defs
     id="defs842" />
  <sodipodi:namedview
     inkscape:current-layer="Layer_1"
     inkscape:window-maximized="1"
     inkscape:window-y="23"
     inkscape:window-x="0"
     inkscape:cy="169.52943"
     inkscape:cx="-136.133"
     inkscape:zoom="0.46048454"
     showgrid="false"
     id="namedview840"
     inkscape:window-height="925"
     inkscape:window-width="1680"
     inkscape:pageshadow="2"
     inkscape:pageopacity="0"
     guidetolerance="10"
     gridtolerance="10"
     objecttolerance="10"
     borderopacity="1"
     bordercolor="#666666"
     pagecolor="#ffffff"
     inkscape:document-rotation="0" />
  <path
     d="m 464.77344,82.130859 c -8.73526,-0.188805 -16.37511,5.45836 -19.97461,9.583985 l -0.0801,0.0918 c -0.938,1.12 -1.95773,2.351734 -3.05273,3.677734 -3.749,4.528002 -8.43396,10.199672 -13.75196,16.638672 l -2.31054,2.80078 c -3.3,4.014 -6.82119,8.28147 -10.49219,12.73047 l -5.54297,6.7207 c -0.058,0.071 -0.11492,0.1438 -0.16992,0.2168 -5.136,6.225 -10.486,12.70079 -15.875,19.21679 -0.059,0.071 -0.11492,0.1438 -0.16992,0.2168 l -1.27344,1.53711 c -4.892,5.913 -9.80505,11.85034 -14.62305,17.65234 -5.554,6.7 -10.97675,13.21504 -16.09375,19.33204 -5.533,6.625 -10.59975,12.64359 -15.09375,17.93359 -21.14297,4.07414 -37.26008,21.29583 -39.92578,42.66211 h -73.3125 c -0.043,-17.589 -0.044,-40.95205 0,-71.12305 0.01,-11.05256 -8.94744,-20.01758 -20,-20.01758 h -87.98047 c -9.13424,-0.01 -17.11088,6.17911 -19.37109,15.0293 l -18.005862,70.16211 -41.42969,24.07031 c -11.07224,6.46122 -17.8899,18.30739 -17.91406,31.12695 v 28.34961 h -2.30078 c -7.64519,0.009 -13.84058,6.20443 -13.84961,13.84961 v 32.22071 c 0.0117,7.64251 6.20709,13.83357 13.84961,13.83984 h 36.04687 c 8.14718,24.82932 32.13525,40.93886 58.201172,39.08594 26.06603,-1.85292 47.53296,-21.19366 52.08594,-46.92578 h 54.6875 c 3.31371,0 6,-2.68629 6,-6 v -13.61133 h 71.42383 l -0.006,0.01 h 0.11523 0.18164 0.26172 0.57032 1.04882 c 0.0429,10e-4 0.0861,-0.009 0.12891,-0.006 0.0106,7e-4 0.0207,0.005 0.0312,0.006 h 0.49414 c 0.13859,0 0.2775,-0.005 0.41602,0 0.10233,0.003 0.20445,0.0124 0.30664,0.0195 0.10047,-0.005 0.0774,-0.002 0.29883,-0.0137 0.0929,-0.005 0.16167,0.0174 0.21289,0.0488 0.013,7.9e-4 0.0261,-9.8e-4 0.0391,0.002 0.0159,-9.9e-4 0.0216,-0.0117 0.0391,-0.0117 h 0.35742 1.66407 0.0215 0.25586 0.49609 c 0.0376,0.002 0.0849,-0.004 0.12696,-0.002 0.002,9e-5 0.002,0.002 0.004,0.002 h 0.68164 c 0.0529,0 0.0805,0.0207 0.11914,0.0332 0.0376,-0.0132 0.0662,-0.0332 0.11914,-0.0332 h 4.66016 0.62109 c 0.0641,0 0.11098,0.014 0.15039,0.0332 0.039,-0.0128 0.0674,-0.0332 0.1211,-0.0332 h 0.0644 l 14.82422,-27.51368 h 8.11133 c -14.50276,16.89371 -17.83884,40.68685 -8.54297,60.91797 9.29587,20.23108 29.52028,33.19532 51.78516,33.19532 22.26487,0 42.49124,-12.96424 51.78711,-33.19532 9.29587,-20.23112 5.95979,-44.02426 -8.54297,-60.91797 h 8.57617 l 23.66016,43.91602 c 1.04682,1.94315 3.07601,3.15466 5.2832,3.1543 h 28.79883 c 3.31371,0 6,-2.68629 6,-6 v -33.61133 c 0,-3.31218 -2.68391,-5.99784 -5.9961,-6 h -18.20117 v -38.83984 c -1.1e-4,-1.7118 -0.73139,-3.34205 -2.00976,-4.48047 L 429.54883,254.6582 c -1.09855,-0.97749 -2.51781,-1.51725 -3.98828,-1.51758 h -20.88477 c -0.83573,-7.03138 -3.19024,-13.79704 -6.90039,-19.82812 3.271,-4.674 7.52269,-10.78539 11.42969,-16.40039 l 3.85937,-5.56836 c 3.449,-4.973 7.15757,-10.31966 10.97657,-15.84766 4.843,-6.973 9.8747,-14.2455 14.8457,-21.4375 L 441,171 c 4.377,-6.325 8.67975,-12.54339 12.71875,-18.40039 3.537,-5.115 6.8743,-9.94603 9.9043,-14.33203 v 45.5 c -0.047,4.04008 -2.47996,7.66966 -6.19922,9.24804 -12.3399,5.6075 -19.28197,18.89257 -16.83789,32.22461 2.44408,13.33204 13.64727,23.29071 27.17383,24.15625 0.62133,0.038 1.2388,0.0566 1.85546,0.0566 8.28725,0.0145 16.1969,-3.46417 21.78711,-9.58203 5.40449,-5.89841 -3.44316,-14.00583 -8.84765,-8.10742 -3.58614,3.916 -8.75368,5.99594 -14.05274,5.65625 -8.77239,-0.65071 -15.73961,-7.6379 -16.36523,-16.41211 -0.47886,-7.27021 3.60714,-14.07346 10.25,-17.0664 7.97736,-3.55614 13.14786,-11.4382 13.23242,-20.17188 v -62.87891 c 2.256,-3.26999 3.63017,-5.27281 3.70117,-5.38281 0.055,-0.081 0.10525,-0.16309 0.15625,-0.24609 7.611,-12.718 3.55796,-24.837111 -4.12304,-29.787111 -3.57694,-2.301187 -7.16194,-3.269869 -10.58008,-3.34375 z m -1.16406,12.066407 c 1.69864,-0.120453 3.4881,0.230937 5.25585,1.367187 3.716,2.394 3.10025,8.776577 0.40625,13.392577 l -5.3496,7.76367 c -2.24901,3.258 -12.19418,17.64508 -14.82618,21.45508 -2.392,3.46664 -12.31022,17.82508 -14.82422,21.45508 -2.46,3.55733 -12.38665,17.9035 -14.83398,21.4375 -2.538,3.667 -12.4817,18.01487 -14.8457,21.42187 -2.455,3.529 -12.42853,17.88546 -14.64453,21.06446 -0.315,-0.305 -0.6399,-0.60039 -0.96289,-0.90039 L 373.625,212.32422 c -0.24044,-0.0577 -0.47841,-0.12119 -0.68945,-0.25 -0.0233,-0.0142 -0.0393,-0.0375 -0.0586,-0.0566 -2.58429,-0.57576 -8.83169,-1.69535 -10.55273,-1.9375 0.93867,-1.116 1.89633,-2.25721 2.875,-3.42188 2.60476,-3.11931 21.50576,-25.80607 24.23047,-29.08398 2.64666,-3.18933 13.39583,-16.1783 16.0625,-19.4043 2.68133,-3.246 13.41883,-16.26388 16.04883,-19.44922 l 2.83007,-3.43164 c 1.74934,-2.12 11.53566,-14.00058 13.20899,-16.03125 2.82381,-3.41067 15.70456,-18.97756 16.0625,-19.410154 l -0.002,-0.002 c 0.073,-0.086 0.15261,-0.182578 0.22461,-0.267578 0.375,-0.411 4.64821,-5.0195 9.74415,-5.380859 z m -9.74415,5.380859 c 0,0 -0.21768,0.263528 -0.22265,0.269531 l 0.0312,0.05273 c -0.004,-0.01338 -0.0147,-0.02252 -0.002,-0.04297 0.0139,-0.02232 0.0262,-0.04619 0.043,-0.06641 0.0525,-0.06304 0.11194,-0.119209 0.17578,-0.169922 z m -88.66601,107.080075 0.42969,0.28907 c 0.005,-6.1e-4 0.006,-0.003 0.0117,-0.004 z m 96.5039,-93.64258 c -7.1e-4,0.001 5e-5,0.003 -0.002,0.004 0.008,0.016 0.0191,0.0362 0.0195,0.0371 0.005,0.01 0.007,0.0141 0.0117,0.0234 0.009,0.0107 0.0186,0.0209 0.0274,0.0312 -0.0188,-0.0319 -0.0362,-0.0647 -0.0566,-0.0957 z M 124.94922,174 c 0.0326,-2e-4 0.0651,-2e-4 0.0977,0 h 87.97851 c 4.41828,0 8,3.58172 8,8 -0.047,33.745 -0.0385,58.9832 0.0215,77.1582 v 17.11914 c 0,3.31371 2.68628,6 6,6 3.3137,0 6,-2.68629 6,-6 v -11.13672 h 190.22851 l 40.34375,35.91211 v 22.6875 h -50.50976 c -17.80787,-10.45316 -39.87769,-10.45316 -57.68555,0 h -122.3731 v -28.32031 c 0,-3.31371 -2.68629,-6 -6,-6 -3.31371,0 -6,2.68629 -6,6 v 34.32031 c 0,3.31371 2.68629,6 6,6 h 92.22266 l -8.32617,15.45899 h -83.90039 c -3.31371,0 -6.00001,2.68629 -6,6 v 13.61133 h -47.85547 c -0.76173,-20.26753 -12.21555,-38.61058 -30.0918,-48.19141 v -65.31836 h 62.41016 c 3.31371,0 6,-2.68629 6,-6 v -61.76172 c 0,-3.31371 -2.68629,-6 -6,-6 h -73.22071 c -2.73566,4e-4 -5.12467,1.85121 -5.80859,4.5 l -15.91016,61.76172 c -0.98074,3.79839 1.88759,7.5007 5.81055,7.5 h 14.71875 v 60.55274 c -18.77484,-5.04123 -38.824682,-0.1857 -53.212892,12.88671 h -16.21875 c -3.31371,0 -6,2.68629 -6,6 0,3.31371 2.68629,6 6,6 h 6.20508 c -5.65669,9.03738 -8.64578,19.48897 -8.62305,30.15039 0.006,1.92388 0.10949,3.84621 0.3086,5.75977 h -33.5293 c -1.0183,10e-4 -1.84567,-0.82155 -1.84961,-1.83984 v -32.22071 c 0.001,-1.02097 0.82864,-1.84829 1.84961,-1.84961 h 17.63867 c 3.31371,0 6,-2.68629 6,-6 0,-3.31371 -2.68629,-6 -6,-6 h -3.33789 v -28.34961 c 0.0161,-8.54673 4.56146,-16.44447 11.94336,-20.75195 l 43.59961,-25.33008 c 1.39276,-0.80753 2.40212,-2.14138 2.80078,-3.70117 L 117.30078,180 c 0.89719,-3.50086 4.03464,-5.96211 7.64844,-6 z m 11.99023,21.53906 h 26.57032 v 49.76172 h -39.38868 z m 38.57032,0 h 24 v 49.76172 h -24 z m 190.90039,11.90235 c -0.001,0.008 -0.003,0.0206 -0.004,0.0293 l 0.0254,0.0156 c 0.001,-0.01 3.5e-4,-0.0196 0.002,-0.0293 z m 0.21484,0.13671 c -10e-4,0.0127 -3.5e-4,0.0245 -0.002,0.0371 l 0.0859,0.0586 c -0.002,-0.0154 -0.006,-0.0298 -0.008,-0.0449 z m -11.02148,14.0254 c 11.86596,0.0268 23.01829,5.67009 30.06836,15.21484 3.58337,4.80348 5.94847,10.40428 6.89257,16.32226 h -32.65429 -8.80078 -0.16211 c -0.003,0.0124 -0.007,0.007 -0.0117,0 h -32.47071 c 2.67543,-16.29016 15.65063,-28.93753 32.00391,-31.19531 h 0.002 c 1.70109,-0.23133 3.41607,-0.34553 5.13282,-0.34179 z m -4.49414,31.5371 c 0.0102,-0.008 0.0208,-0.0143 0.0312,-0.0215 -0.007,-9.6e-4 -0.0146,-4.2e-4 -0.0234,-0.002 -0.002,0.008 -0.005,0.0151 -0.008,0.0234 z m 8.80078,0 c -0.001,-0.004 -0.003,-0.008 -0.004,-0.0117 h -0.0156 c 0.006,0.004 0.0134,0.007 0.0195,0.0117 z m -243.47071,74.75977 c 6.27482,0.0254 12.47507,1.36194 18.20313,3.92383 16.16609,7.27052 26.57047,23.34091 26.58789,41.0664 0,1.16501 -0.0459,2.32785 -0.13086,3.46485 -2.41532,31.22497 -35.19889,50.48928 -63.652342,37.4043 -28.45345,-13.08498 -35.16685,-50.51288 -13.03321,-72.66993 8.48994,-8.49007 20.018812,-13.23816 32.025392,-13.18945 z m 267.9336,0.002 c 24.80313,0.0607 44.8777,20.18514 44.87695,44.98828 -0.002,34.2514 -36.75018,55.93745 -66.73438,39.38282 -29.98414,-16.55462 -31.21137,-59.20769 -2.22656,-77.45703 l 0.0117,-0.008 v 0.006 c 7.20805,-4.53619 15.55567,-6.93312 24.07227,-6.91211 z m 65.33398,7.83789 h 13.91211 v 25.82032 z m 25.91211,13.45899 h 12.20117 V 370.8106 H 475.61914 Z M 304.10156,363.9375 c -0.0102,0.004 -0.0154,0.006 -0.0312,0.0117 0.003,10e-4 0.005,0.003 0.008,0.004 0.017,-0.007 0.0157,-0.007 0.0352,-0.0156 -0.004,-10e-6 -0.008,1e-5 -0.0117,0 z m 13.36524,0.30078 c 0.0203,0.008 0.0481,0.009 0.0645,0.0195 5.5e-4,-0.006 0.002,-0.0118 0.002,-0.0176 -0.0182,-1.9e-4 -0.0482,-0.002 -0.0664,-0.002 z M 304.5,364.66211 c -0.0144,0.001 -0.0286,0.003 -0.043,0.004 -0.002,0.003 -0.004,0.006 -0.006,0.01 0.0164,8.7e-4 0.0288,-10e-4 0.0449,0.002 10e-4,-0.005 0.002,-0.0104 0.004,-0.0156 z m 9.57031,0.19336 -0.0801,0.006 c 0.033,0.005 0.0622,0.008 0.0801,-0.006 z m -10.64843,0.29883 -0.0274,0.0488 c 0.0293,-0.0201 0.0477,-0.0304 0.0742,-0.0488 z m 13.54101,0.15234 c 0.002,5.3e-4 0.005,-0.001 0.008,0.002 l 0.002,-0.002 c -0.003,4.1e-4 -0.007,-4.2e-4 -0.01,0 z"
     style="fill:#000000;fill-opacity:1"
     id="path833" />
  <path
     d="m 387.1319,359.68056 c -3.87941,2.68307 -8.20934,4.81017 -11.63823,8.04922 -0.83804,0.79165 -0.48338,2.26883 -0.50476,3.42146 -0.0676,3.64472 0.92985,7.99345 4.04497,10.30697 0.86429,0.64188 1.98895,0.82469 2.98342,1.23704 7.36458,-0.0169 15.18862,-4.92749 17.96486,-11.80727 0.95461,-2.3656 1.34532,-4.54249 -0.0261,-6.87487 -0.59317,-1.00885 -1.66918,-1.64084 -2.50377,-2.46126 0,0 -9.9625,6.15132 -9.9625,6.15132 v 0 c 0.71995,0.6327 1.65732,1.08195 2.15985,1.8981 1.19361,1.93853 0.68437,4.05472 -0.23336,5.94687 -0.55801,1.15048 -3.44477,3.20978 -2.16688,3.16535 2.68605,-0.0934 5.01244,-1.99497 7.3364,-3.34509 0.84645,-0.49174 -1.89556,0.48989 -2.84334,0.73483 -0.90834,-0.2315 -1.92269,-0.2098 -2.72501,-0.69451 -1.99532,-1.20545 -2.97719,-3.48598 -3.38607,-5.6526 -0.22785,-1.20741 -0.26383,-2.46361 -0.12209,-3.68412 0.12208,-1.0511 1.94972,-3.20112 0.9034,-3.04324 -3.20343,0.48337 -5.83435,2.81831 -8.75152,4.22746 0,0 9.47069,-7.57566 9.47069,-7.57566 z"
     id="path848"
     style="fill:#000000;fill-opacity:0" />
  <path
     d="m 363.90158,381.22222 c 1.1473,0.55386 2.21106,1.33283 3.4419,1.66159 6.30847,1.68502 11.61944,-5.16719 16.01348,-7.98742 0,0 -10.74907,4.42285 -10.74907,4.42285 v 0 c 17.01663,-7.26725 6.95169,-2.19508 4.43247,-2.77646 -1.18759,-0.27407 -2.09584,-1.24475 -3.14376,-1.86713 0,0 -9.99502,6.54657 -9.99502,6.54657 z"
     id="path850"
     style="fill:#000000;fill-opacity:0" />
  <path
     d="m 377.34021,360.1953 c 0.47565,9.0616 -0.11461,18.12826 -0.99176,27.14596 -0.0145,0.75142 -0.029,1.50284 -0.0435,2.25426 0,0 10.62968,-5.44088 10.62968,-5.44088 v 0 c -0.0411,-0.68725 -0.0822,-1.3745 -0.1233,-2.06175 0.2538,-9.14641 0.53122,-18.30269 1.36298,-27.41787 0,0 -10.83414,5.52028 -10.83414,5.52028 z"
     id="path852"
     style="fill:#000000;fill-opacity:0" />
  <path
     d="m 401.4002,383.49671 c 0.0414,-4.86982 -0.0165,-2.14375 0.23013,-8.17681 0,0 -10.09298,5.04944 -10.09298,5.04944 v 0 c -0.66426,6.30662 -0.35973,3.43427 -0.91166,8.61725 0,0 10.77451,-5.48988 10.77451,-5.48988 z"
     id="path854"
     style="fill:#000000;fill-opacity:0" />
  <rect
     ry="15.956079"
     y="357.07443"
     x="349.61813"
     height="31.912157"
     width="41.007568"
     id="rect860"
     style="fill:#000000;fill-opacity:0" />
  <path
     d="m 303.39453,363.85938 v 1.34374 h 9.6582 v -1.11914 c -0.21135,0.006 -0.34294,0.0111 -0.67578,0.0215 -0.3227,-0.0165 -0.64604,-0.0322 -0.96875,-0.0488 -0.18489,-0.01 -0.26994,-0.10346 -0.27539,-0.19726 z"
     style="fill:#000000;fill-opacity:0"
     id="rect1062" />
  <path
     d="m 384.63298,356.75078 a 17.765,17.765 0 1 0 17.77,17.77 17.79,17.79 0 0 0 -17.77,-17.77 z m 0,23.53 a 5.765,5.765 0 1 1 5.77,-5.76 5.772,5.772 0 0 1 -5.77,5.76 z"
     id="path850-8" />
  <path
     id="path850-8-2"
     d="m 116.61198,357.52963 a 17.765,17.765 0 1 0 17.77,17.77 17.79,17.79 0 0 0 -17.77,-17.77 z m 0,23.53 a 5.765,5.765 0 1 1 5.77,-5.76 5.772,5.772 0 0 1 -5.77,5.76 z" />
</svg>
