<?xml version="1.0" encoding="UTF-8" standalone="no"?>
<svg
   xmlns:dc="http://purl.org/dc/elements/1.1/"
   xmlns:cc="http://creativecommons.org/ns#"
   xmlns:rdf="http://www.w3.org/1999/02/22-rdf-syntax-ns#"
   xmlns:svg="http://www.w3.org/2000/svg"
   xmlns="http://www.w3.org/2000/svg"
   xmlns:sodipodi="http://sodipodi.sourceforge.net/DTD/sodipodi-0.dtd"
   xmlns:inkscape="http://www.inkscape.org/namespaces/inkscape"
   inkscape:version="1.0 (4035a4f, 2020-05-01)"
   sodipodi:docname="wrench.svg"
   xml:space="preserve"
   style="enable-background:new 0 0 507.992 507.992;"
   viewBox="0 0 507.992 507.992"
   y="0px"
   x="0px"
   id="Capa_1"
   version="1.1"><metadata
   id="metadata898"><rdf:RDF><cc:Work
       rdf:about=""><dc:format>image/svg+xml</dc:format><dc:type
         rdf:resource="http://purl.org/dc/dcmitype/StillImage" /></cc:Work></rdf:RDF></metadata><defs
   id="defs896" /><sodipodi:namedview
   inkscape:current-layer="Capa_1"
   inkscape:window-maximized="1"
   inkscape:window-y="23"
   inkscape:window-x="0"
   inkscape:cy="253.47408"
   inkscape:cx="187.19988"
   inkscape:zoom="0.69476807"
   showgrid="false"
   id="namedview894"
   inkscape:window-height="925"
   inkscape:window-width="1680"
   inkscape:pageshadow="2"
   inkscape:pageopacity="0"
   guidetolerance="10"
   gridtolerance="10"
   objecttolerance="10"
   borderopacity="1"
   bordercolor="#666666"
   pagecolor="#ffffff" />
<g
   transform="matrix(-1,0,0,1,507.99113,0)"
   id="g837">
	<g
   id="g835">
		<path
   id="path833"
   d="m 484.004,368.219 c -15.5,-15.5 -36.5,-23.8 -58.7,-23.9 l -200,-200 c 10.6,-39.6 -0.5,-81.7 -29.7,-110.8 -30.3,-30.5 -75.7,-43.7 -128.6,-24.4 l 73.3,73.3 -9.7,48.3 -48.3,9.7 -73.3,-73.3 c -19.2,52.4 -6.1,98.3 24.2,128.6 29.1,29.1 71.2,40.3 110.8,29.7 l 200,200 c -0.2,22 8.4,43.2 23.9,58.7 33.6,33.6 86.1,29.8 116,0 32.1,-31.9 32.1,-83.9 0.1,-115.9 z m -11.6,104.4 c -25.6,25.6 -67.2,25.6 -92.8,0 -22.8,-22.8 -18.8,-53.6 -18.8,-53.6 l -212.1,-212.2 c -37.7,14.2 -77.9,3.3 -103.9,-22.7 -22.6,-22.7 -32.6,-54.4 -27.5,-85.5 l 59.6,59.6 67.6,-13.5 13.5,-67.6 -59.6,-59.6 c 31.1,-5.2 62.8,4.8 85.5,27.5 26,26 36.8,67.7 22.7,103.9 l 212.1,212.1 c 0,0 30.5,-4.3 53.6,18.8 25.7,25.6 25.7,67.2 0.1,92.8 z" />
	</g>
</g>
<g
   transform="matrix(-1,0,0,1,507.99113,0)"
   id="g843">
	<g
   id="g841">
		<path
   id="path839"
   d="m 455.004,397.219 c -16,-16 -42,-16 -58,0 -16,16 -16,42 0,58 19.1,19.1 45.1,12.9 58,0 16,-16 16,-42 0,-58 z m -11.6,46.4 c -9.3,9.3 -25.5,9.3 -34.8,0 -9.6,-9.6 -9.6,-25.2 0,-34.8 13.3,-13.3 30,-4.8 34.8,0 9.6,9.6 9.6,25.2 0,34.8 z" />
	</g>
</g>
<g
   transform="matrix(-1,0,0,1,507.99113,0)"
   id="g849">
	<g
   id="g847">
		<rect
   id="rect845"
   height="16.4"
   width="16.4"
   transform="matrix(0.7071,-0.7071,0.7071,0.7071,-105.2961,253.8932)"
   y="245.85001"
   x="245.62801" />
	</g>
</g>
<g
   transform="matrix(-1,0,0,1,507.99113,0)"
   id="g855">
	<g
   id="g853">
		<rect
   id="rect851"
   height="16.4"
   width="16.4"
   transform="matrix(0.7072,-0.707,0.707,0.7072,-114.8587,277.0633)"
   y="269.00601"
   x="268.88199" />
	</g>
</g>
<g
   transform="matrix(-1,0,0,1,507.99113,0)"
   id="g861">
	<g
   id="g859">
		<rect
   id="rect857"
   height="16.4"
   width="16.4"
   transform="matrix(0.7071,-0.7071,0.7071,0.7071,-95.6155,230.7229)"
   y="222.58"
   x="222.5" />
	</g>
</g>
<g
   id="g863">
</g>
<g
   id="g865">
</g>
<g
   id="g867">
</g>
<g
   id="g869">
</g>
<g
   id="g871">
</g>
<g
   id="g873">
</g>
<g
   id="g875">
</g>
<g
   id="g877">
</g>
<g
   id="g879">
</g>
<g
   id="g881">
</g>
<g
   id="g883">
</g>
<g
   id="g885">
</g>
<g
   id="g887">
</g>
<g
   id="g889">
</g>
<g
   id="g891">
</g>
</svg>
